<svg width="792" height="186" viewBox="0 0 792 186" fill="none" xmlns="http://www.w3.org/2000/svg">
<path d="M103.404 118.327C103.15 118.327 102.929 118.152 102.87 117.904L76.0735 4.19017H0V185.279C26.2017 180.283 37.2614 136.266 41.925 101.395C42.2289 99.1227 42.2444 96.823 42.0033 94.5435L35.8382 36.2465C35.78 35.6969 36.1787 35.2044 36.7283 35.1467L47.8125 33.9841C48.3614 33.9265 48.8532 34.3245 48.9113 34.8734L54.7227 89.7655C54.8755 91.2095 55.1331 92.6405 55.4932 94.0471L78.9726 185.764H120.914L142.795 100.272C143.396 97.9265 143.825 95.5405 144.079 93.1327L150.241 34.8735C150.299 34.3246 150.79 33.9266 151.339 33.9841L162.423 35.1467C162.973 35.2044 163.372 35.6969 163.314 36.2465L157.773 88.6204C157.389 92.2516 157.39 95.906 157.855 99.5277C162.589 136.342 174.415 184.522 203.922 185.71V4.19017H129.588L103.94 117.899C103.884 118.149 103.661 118.327 103.404 118.327Z" fill="black"/>
<path d="M342.967 147.672V100.574C342.967 65.3961 318.985 50.2821 285.463 50.2821C248.767 50.2821 228.245 69.468 223.912 97.0928L262.632 99.9991C264.941 89.2444 271.012 81.6835 283.146 81.6835C295.28 81.6835 301.931 88.9492 301.931 101.165V103.488L266.1 109.883C237.776 115.408 219.286 125.876 219.286 150.586C219.286 172.679 235.467 185.764 261.187 185.764C281.13 185.764 297.018 177.916 304.248 163.089C308.001 177.628 319.271 185.764 334.587 185.764C347.3 185.764 355.395 181.988 361.752 177.333V154.946C357.998 156.686 354.816 157.269 351.062 157.269C345.864 157.269 342.967 154.363 342.967 147.672ZM301.931 128.199C301.931 146.515 289.796 158.147 274.48 158.147C265.52 158.147 259.743 153.493 259.743 145.94C259.743 135.768 267.838 132.566 280.837 129.947L301.931 125.588V128.199Z" fill="black"/>
<path d="M455.136 50.2821C435.75 50.2821 420.129 59.5916 413.185 73.8552V53.7741H371.529V182.971H413.185V117.214C413.185 96.8449 421.575 83.4602 438.356 83.4602C453.69 83.4602 459.768 93.6407 459.768 112.267V182.971H501.424V102.079C501.424 74.4385 489.856 50.2821 455.136 50.2821Z" fill="black"/>
<path d="M568.872 136.555V83.0043H603.042V53.7648H568.872V18.1574H543.1L538.759 35.2338C535.578 47.1029 531.809 53.7571 519.07 56.0783L509.806 57.5252V82.9966H527.761V147.844C527.761 176.789 546.583 185.764 567.433 185.764C584.227 185.764 595.233 181.71 604.783 174.476V146.977C596.966 150.451 590.303 152.192 583.933 152.192C574.096 152.192 568.872 146.232 568.872 136.555Z" fill="black"/>
<path d="M657.859 54.4723H617.354V182.971H657.859V54.4723Z" fill="black"/>
<path d="M659.256 1.52588e-05H615.958V39.1083H659.256V1.52588e-05Z" fill="black"/>
<path d="M747.577 102.389L722.634 98.048C716.255 97.1813 712.193 93.9933 712.193 88.7857C712.193 81.8371 718.572 77.4962 729.013 77.4962C744.965 77.4962 753.949 83.8644 755.979 95.154L790.488 93.9933C787.875 66.4929 766.126 50.2821 729.587 50.2821C695.078 50.2821 673.329 67.9399 673.329 92.8404C673.329 117.741 689.281 128.45 718.859 133.077L738.578 136.258C749.019 137.991 753.08 141.473 753.08 147.841C753.08 154.79 745.539 158.844 734.23 158.844C718.572 158.844 708.713 151.896 706.969 139.446L670.43 140.312C672.747 171.581 699.14 185.764 733.943 185.764C768.745 185.764 791.945 170.707 791.945 143.786C791.945 119.18 775.706 106.73 747.577 102.389Z" fill="black"/>
</svg>
